<svg width="194" height="26" viewBox="0 0 194 26" fill="none" xmlns="http://www.w3.org/2000/svg">
<g clip-path="url(#clip0_4_16)">
<path d="M49.3935 20.153C47.8897 20.153 46.6024 19.891 45.5316 19.3669C44.4836 18.8201 43.6292 18.1138 42.9684 17.248C42.3077 16.3595 41.8179 15.3912 41.4989 14.3431C41.1799 13.2951 41.0204 12.2698 41.0204 11.2673C41.0204 10.0142 41.1685 8.85226 41.4647 7.78142C41.7837 6.71059 42.2735 5.77646 42.9343 4.97903C43.595 4.15882 44.4494 3.52087 45.4974 3.0652C46.5683 2.60952 47.8669 2.38169 49.3935 2.38169C51.1022 2.38169 52.6401 2.75762 54.0071 3.50948C55.3742 4.26134 56.4564 5.30939 57.2538 6.65363C58.074 7.97508 58.4841 9.51298 58.4841 11.2673C58.4841 13.0672 58.074 14.6393 57.2538 15.9835C56.4336 17.305 55.34 18.3303 53.973 19.0593C52.606 19.7884 51.0794 20.153 49.3935 20.153ZM47.9581 16.7012C49.1656 16.7012 50.2137 16.4734 51.1022 16.0177C52.0136 15.5621 52.7085 14.9355 53.1869 14.1381C53.6882 13.3179 53.9388 12.3609 53.9388 11.2673C53.9388 9.6269 53.4148 8.30545 52.3667 7.30296C51.3415 6.30048 49.8719 5.79924 47.9581 5.79924C46.7505 5.79924 45.6455 6.01569 44.6431 6.44858C43.6634 6.88147 42.8887 7.50802 42.3191 8.32823C41.7495 9.12566 41.4647 10.1054 41.4647 11.2673C41.4647 12.3609 41.7267 13.3179 42.2508 14.1381C42.7748 14.9355 43.5267 15.5621 44.5063 16.0177C45.486 16.4734 46.6366 16.7012 47.9581 16.7012ZM37.0219 2.75762H41.2597L41.4647 7.26879V26.578H37.0219V2.75762ZM70.0229 20.1188C68.3369 20.1188 66.799 19.7543 65.4092 19.0252C64.0422 18.2733 62.9486 17.2367 62.1284 15.9152C61.3309 14.571 60.9322 13.0217 60.9322 11.2673C60.9322 9.46741 61.3423 7.90673 62.1626 6.58528C62.9828 5.26382 64.0878 4.23856 65.4776 3.50948C66.8902 2.75762 68.485 2.38169 70.2622 2.38169C72.2215 2.38169 73.7936 2.7804 74.9784 3.57783C76.1859 4.35248 77.0631 5.41192 77.6099 6.75616C78.1567 8.10039 78.4301 9.60412 78.4301 11.2673C78.4301 12.2698 78.2706 13.2951 77.9516 14.3431C77.6327 15.3684 77.1428 16.3253 76.4821 17.2139C75.8214 18.0796 74.9556 18.7859 73.8848 19.3328C72.8139 19.8568 71.5266 20.1188 70.0229 20.1188ZM71.4583 16.7012C72.8025 16.7012 73.9645 16.4734 74.9442 16.0177C75.9239 15.5621 76.6758 14.9241 77.1998 14.1039C77.7238 13.2837 77.9858 12.3382 77.9858 11.2673C77.9858 10.1054 77.7124 9.12566 77.1656 8.32823C76.6416 7.50802 75.8897 6.89286 74.91 6.48275C73.9531 6.04986 72.8025 5.83342 71.4583 5.83342C69.5672 5.83342 68.0977 6.33466 67.0497 7.33714C66.0016 8.31684 65.4776 9.6269 65.4776 11.2673C65.4776 12.3609 65.7282 13.3179 66.2294 14.1381C66.7307 14.9355 67.4256 15.5621 68.3141 16.0177C69.2255 16.4734 70.2735 16.7012 71.4583 16.7012ZM77.9858 2.75762H82.4286V19.7429H78.2934C78.2934 19.7429 78.2592 19.5264 78.1909 19.0935C78.1453 18.6378 78.0997 18.0683 78.0542 17.3847C78.0086 16.7012 77.9858 16.0291 77.9858 15.3684V2.75762ZM85.7661 14.1039H89.8672C90.1178 14.8785 90.6304 15.5165 91.4051 16.0177C92.2025 16.4962 93.2391 16.7354 94.515 16.7354C95.3808 16.7354 96.0529 16.6557 96.5314 16.4962C97.0098 16.3367 97.3402 16.1089 97.5225 15.8127C97.7047 15.4937 97.7959 15.1406 97.7959 14.7532C97.7959 14.2748 97.6478 13.9102 97.3516 13.6596C97.0554 13.3862 96.5997 13.1698 95.9846 13.0103C95.3694 12.8508 94.5834 12.7027 93.6265 12.566C92.6696 12.4065 91.7468 12.2128 90.8583 11.985C89.9697 11.7572 89.1836 11.461 88.5001 11.0964C87.8166 10.7091 87.2698 10.2307 86.8597 9.66108C86.4724 9.0687 86.2787 8.35101 86.2787 7.50802C86.2787 6.6878 86.4724 5.95873 86.8597 5.32078C87.2698 4.68284 87.828 4.14742 88.5343 3.71453C89.2634 3.28164 90.1064 2.95128 91.0633 2.72344C92.043 2.49561 93.0911 2.38169 94.2075 2.38169C95.8934 2.38169 97.2946 2.63231 98.411 3.13355C99.5274 3.61201 100.359 4.29552 100.906 5.18408C101.475 6.04986 101.76 7.05234 101.76 8.19153H97.8301C97.6478 7.34853 97.2833 6.74476 96.7364 6.38022C96.1896 5.9929 95.3466 5.79924 94.2075 5.79924C93.0911 5.79924 92.2481 5.97012 91.6785 6.31187C91.1089 6.65363 90.8241 7.12069 90.8241 7.71307C90.8241 8.19153 90.995 8.56746 91.3367 8.84086C91.7012 9.09148 92.2253 9.29654 92.9088 9.45602C93.6151 9.61551 94.4922 9.78639 95.5403 9.96866C96.4289 10.1509 97.2719 10.356 98.0693 10.5838C98.8895 10.8117 99.6186 11.1078 100.257 11.4724C100.894 11.8141 101.396 12.2812 101.76 12.8736C102.148 13.4432 102.341 14.1722 102.341 15.0608C102.341 16.1544 102.022 17.0772 101.384 17.829C100.769 18.5809 99.8806 19.1619 98.7186 19.572C97.5567 19.9593 96.1669 20.153 94.5492 20.153C93.1138 20.153 91.8721 20.0049 90.8241 19.7087C89.7988 19.3897 88.9444 18.991 88.2609 18.5125C87.5774 18.0113 87.042 17.4873 86.6547 16.9405C86.2901 16.3709 86.0395 15.8355 85.9028 15.3342C85.7661 14.833 85.7205 14.4229 85.7661 14.1039ZM105.057 14.1039H109.158C109.408 14.8785 109.921 15.5165 110.696 16.0177C111.493 16.4962 112.53 16.7354 113.806 16.7354C114.671 16.7354 115.343 16.6557 115.822 16.4962C116.3 16.3367 116.631 16.1089 116.813 15.8127C116.995 15.4937 117.086 15.1406 117.086 14.7532C117.086 14.2748 116.938 13.9102 116.642 13.6596C116.346 13.3862 115.89 13.1698 115.275 13.0103C114.66 12.8508 113.874 12.7027 112.917 12.566C111.96 12.4065 111.037 12.2128 110.149 11.985C109.26 11.7572 108.474 11.461 107.791 11.0964C107.107 10.7091 106.56 10.2307 106.15 9.66108C105.763 9.0687 105.569 8.35101 105.569 7.50802C105.569 6.6878 105.763 5.95873 106.15 5.32078C106.56 4.68284 107.119 4.14742 107.825 3.71453C108.554 3.28164 109.397 2.95128 110.354 2.72344C111.333 2.49561 112.382 2.38169 113.498 2.38169C115.184 2.38169 116.585 2.63231 117.702 3.13355C118.818 3.61201 119.65 4.29552 120.196 5.18408C120.766 6.04986 121.051 7.05234 121.051 8.19153H117.121C116.938 7.34853 116.574 6.74476 116.027 6.38022C115.48 5.9929 114.637 5.79924 113.498 5.79924C112.382 5.79924 111.539 5.97012 110.969 6.31187C110.399 6.65363 110.115 7.12069 110.115 7.71307C110.115 8.19153 110.285 8.56746 110.627 8.84086C110.992 9.09148 111.516 9.29654 112.199 9.45602C112.906 9.61551 113.783 9.78639 114.831 9.96866C115.719 10.1509 116.562 10.356 117.36 10.5838C118.18 10.8117 118.909 11.1078 119.547 11.4724C120.185 11.8141 120.686 12.2812 121.051 12.8736C121.438 13.4432 121.632 14.1722 121.632 15.0608C121.632 16.1544 121.313 17.0772 120.675 17.829C120.06 18.5809 119.171 19.1619 118.009 19.572C116.847 19.9593 115.457 20.153 113.84 20.153C112.404 20.153 111.163 20.0049 110.115 19.7087C109.089 19.3897 108.235 18.991 107.551 18.5125C106.868 18.0113 106.332 17.4873 105.945 16.9405C105.581 16.3709 105.33 15.8355 105.193 15.3342C105.057 14.833 105.011 14.4229 105.057 14.1039ZM133.301 20.1188C131.615 20.1188 130.077 19.7543 128.687 19.0252C127.32 18.2733 126.227 17.2367 125.407 15.9152C124.609 14.571 124.21 13.0217 124.21 11.2673C124.21 9.46741 124.62 7.90673 125.441 6.58528C126.261 5.26382 127.366 4.23856 128.756 3.50948C130.168 2.75762 131.763 2.38169 133.54 2.38169C135.5 2.38169 137.072 2.7804 138.257 3.57783C139.464 4.35248 140.341 5.41192 140.888 6.75616C141.435 8.10039 141.708 9.60412 141.708 11.2673C141.708 12.2698 141.549 13.2951 141.23 14.3431C140.911 15.3684 140.421 16.3253 139.76 17.2139C139.1 18.0796 138.234 18.7859 137.163 19.3328C136.092 19.8568 134.805 20.1188 133.301 20.1188ZM134.736 16.7012C136.081 16.7012 137.243 16.4734 138.222 16.0177C139.202 15.5621 139.954 14.9241 140.478 14.1039C141.002 13.2837 141.264 12.3382 141.264 11.2673C141.264 10.1054 140.991 9.12566 140.444 8.32823C139.92 7.50802 139.168 6.89286 138.188 6.48275C137.231 6.04986 136.081 5.83342 134.736 5.83342C132.845 5.83342 131.376 6.33466 130.328 7.33714C129.28 8.31684 128.756 9.6269 128.756 11.2673C128.756 12.3609 129.006 13.3179 129.508 14.1381C130.009 14.9355 130.704 15.5621 131.592 16.0177C132.504 16.4734 133.552 16.7012 134.736 16.7012ZM141.264 2.75762H145.707V19.7429H141.572C141.572 19.7429 141.537 19.5264 141.469 19.0935C141.423 18.6378 141.378 18.0683 141.332 17.3847C141.287 16.7012 141.264 16.0291 141.264 15.3684V2.75762ZM158.203 17.1455C156.358 17.1455 154.729 16.8721 153.316 16.3253C151.926 15.7557 150.844 14.9241 150.07 13.8305C149.295 12.7369 148.908 11.4154 148.908 9.86613C148.908 8.33962 149.283 7.01817 150.035 5.90177C150.787 4.78537 151.858 3.91959 153.248 3.30443C154.66 2.68927 156.312 2.38169 158.203 2.38169C158.727 2.38169 159.229 2.41586 159.707 2.48421C160.208 2.55256 160.698 2.6437 161.177 2.75762L169.755 2.79179V6.141C168.593 6.16378 167.408 6.02708 166.2 5.73089C165.016 5.41192 163.968 5.07016 163.056 4.70562L162.954 4.46639C163.728 4.83093 164.457 5.28661 165.141 5.83342C165.824 6.35744 166.371 6.9726 166.781 7.6789C167.214 8.36241 167.431 9.15983 167.431 10.0712C167.431 11.5521 167.055 12.828 166.303 13.8988C165.551 14.9469 164.48 15.7557 163.09 16.3253C161.723 16.8721 160.094 17.1455 158.203 17.1455ZM163.911 26.7488V25.9286C163.911 24.8806 163.569 24.1515 162.885 23.7414C162.225 23.3313 161.313 23.1262 160.151 23.1262H154.854C153.829 23.1262 152.963 23.0465 152.257 22.887C151.573 22.7275 151.026 22.4997 150.616 22.2035C150.206 21.9073 149.91 21.5542 149.728 21.1441C149.545 20.7567 149.454 20.3352 149.454 19.8796C149.454 18.9682 149.751 18.2847 150.343 17.829C150.935 17.3506 151.733 17.0316 152.735 16.8721C153.738 16.7126 154.843 16.6785 156.05 16.7696L158.203 17.1455C156.768 17.1911 155.697 17.3164 154.991 17.5214C154.307 17.7037 153.966 18.0796 153.966 18.6492C153.966 18.991 154.102 19.2644 154.376 19.4695C154.649 19.6517 155.036 19.7429 155.538 19.7429H161.108C162.635 19.7429 163.933 19.9023 165.004 20.2213C166.098 20.5631 166.929 21.1213 167.499 21.8959C168.069 22.6933 168.353 23.7756 168.353 25.1426V26.7488H163.911ZM158.203 13.933C159.183 13.933 160.037 13.7735 160.766 13.4546C161.518 13.1356 162.099 12.6799 162.509 12.0875C162.92 11.4724 163.125 10.7433 163.125 9.9003C163.125 9.03452 162.92 8.29405 162.509 7.6789C162.099 7.06374 161.53 6.59667 160.801 6.2777C160.072 5.93594 159.206 5.76507 158.203 5.76507C157.224 5.76507 156.358 5.93594 155.606 6.2777C154.854 6.59667 154.273 7.06374 153.863 7.6789C153.453 8.29405 153.248 9.03452 153.248 9.9003C153.248 10.7433 153.453 11.4724 153.863 12.0875C154.273 12.6799 154.843 13.1356 155.572 13.4546C156.324 13.7735 157.201 13.933 158.203 13.933ZM187.837 14.1039H192.143C191.961 15.2659 191.471 16.3025 190.674 17.2139C189.899 18.1252 188.84 18.8429 187.495 19.3669C186.151 19.891 184.511 20.153 182.574 20.153C180.41 20.153 178.496 19.8112 176.833 19.1277C175.169 18.4214 173.871 17.4075 172.937 16.0861C172.003 14.7646 171.535 13.1698 171.535 11.3015C171.535 9.43324 171.991 7.83838 172.902 6.51693C173.814 5.17269 175.078 4.14742 176.696 3.44113C178.336 2.73483 180.25 2.38169 182.437 2.38169C184.67 2.38169 186.527 2.73483 188.008 3.44113C189.489 4.14742 190.583 5.21826 191.289 6.65363C192.018 8.06622 192.326 9.87752 192.212 12.0875H176.012C176.126 12.9533 176.445 13.7394 176.969 14.4457C177.516 15.1519 178.245 15.7101 179.157 16.1203C180.091 16.5304 181.196 16.7354 182.472 16.7354C183.884 16.7354 185.058 16.4962 185.992 16.0177C186.949 15.5165 187.564 14.8785 187.837 14.1039ZM182.232 5.76507C180.592 5.76507 179.259 6.1296 178.234 6.85868C177.209 7.56498 176.548 8.44215 176.252 9.4902H187.803C187.689 8.35101 187.142 7.45106 186.163 6.79033C185.206 6.10682 183.896 5.76507 182.232 5.76507Z" fill="white"/>
<path d="M0.0592545 8.80394C0.0282844 9.3574 0.337985 9.87316 0.841586 10.1048L10.9459 14.7398L15.5807 24.8435C15.8015 25.3229 16.2809 25.6286 16.8047 25.6286L16.8814 25.6259C17.1517 25.6107 17.4111 25.5145 17.6258 25.3497C17.8405 25.1849 18.0006 24.9592 18.0852 24.7021L25.619 1.76652C25.7766 1.28443 25.65 0.75252 25.2918 0.392973C24.9336 0.0334264 24.4031 -0.0891159 23.9184 0.0657451L0.982971 7.60141C0.72576 7.68541 0.499932 7.84518 0.335097 8.05977C0.170261 8.27436 0.074112 8.53375 0.0592545 8.80394V8.80394Z" fill="white"/>
</g>
<defs>
<clipPath id="clip0_4_16">
<rect width="193.514" height="26" fill="white"/>
</clipPath>
</defs>
</svg>
