<svg width="100" height="100" viewBox="0 0 100 100" fill="none" xmlns="http://www.w3.org/2000/svg">
<path d="M19.0046 43.8936C18.9381 45.0814 19.6027 46.1882 20.6835 46.6853L42.3678 56.6323L52.3142 78.3152C52.7881 79.344 53.8168 80 54.9409 80L55.1056 79.9942C55.6856 79.9617 56.2423 79.7552 56.7031 79.4015C57.164 79.0479 57.5075 78.5636 57.689 78.0117L73.8569 28.791C74.195 27.7564 73.9234 26.6149 73.1547 25.8433C72.386 25.0717 71.2475 24.8088 70.2072 25.1411L20.9869 41.313C20.4349 41.4932 19.9503 41.8361 19.5965 42.2966C19.2428 42.7571 19.0364 43.3138 19.0046 43.8936Z" fill="#414141"/>
</svg>
